<svg id="Layer_1" data-name="Layer 1" xmlns="http://www.w3.org/2000/svg" viewBox="0 0 1024 1024"><defs><style>.cls-1{fill:#353535;}.cls-2{fill:#38586c;}.cls-3{fill:#fff;}.cls-4{fill:#d5c5b7;}</style></defs><title>skupper_icon_rgb_default</title><path class="cls-1" d="M999.91,446.41l-13.6-1.35c-1.75-.26-22.6-3.69-53.35-21.81-18.81-11.08-37.6-25.42-55.85-42.61-23-21.64-45.15-47.89-65.9-78A603.2,603.2,0,0,0,625.82,128.4C543.74,79.27,481.46,68.93,464.33,66.93a330.85,330.85,0,0,0-37.84-2.34A227.22,227.22,0,0,0,390,67.37C356.67,72.76,328.5,86,306.24,106.79c-20.46,19.09-35.63,44.32-45.1,75-9.71,31.48-13.59,69.66-11.54,113.48,2,42.94-2.25,91.81-12.31,141.32a729.31,729.31,0,0,1-45.75,144.86c-20.61,47.07-44.72,87.84-71.65,121.18-27.42,33.94-56.23,58.21-85.64,72.13l-12.52,5.93L1,790.5l7.82,21.55,4.73,13c1.33,3.67,13.86,36.64,43.54,64.69,8.41,8,19.94,18.14,34.56,26.43,17.42,9.89,35.6,14.9,54,14.9a105.34,105.34,0,0,0,15.6-1.18c58.88-8.87,126.27-30.66,174.25-48.14a143.29,143.29,0,0,0,14.58,18.7c35.95,39.11,93.71,58.94,171.65,58.94,39,0,84-5,133.59-14.91C723.61,930.88,779.54,909,821.6,879.35c36.25-25.52,62.36-56.67,77.62-92.6a190.22,190.22,0,0,0,15-80.24,58.79,58.79,0,0,0,27.35,7c13.86,0,23-5.37,26.34-7.68l6.77-4.73a9.16,9.16,0,0,0,3.81-6.13l1.25-8.17c.33-2.14,2.69-19.3-1.31-43.35,1-1.05,2-2.1,3-3.2,14.63-16.59,25-38.83,31.83-68,5.62-24.12,8.62-52.36,9.18-86.35l.23-14,.38-23.2Z"/><path class="cls-2" d="M983.48,470.1c-.94-.09-95-10.93-193-153.19A577.55,577.55,0,0,0,612.88,150C535.11,103.47,477.28,93.81,461.41,92c-25.68-3-47.73-2.9-67.43.28-28.27,4.58-52,15.67-70.55,33-17.2,16-30.06,37.59-38.21,64-8.85,28.68-12.37,64-10.45,104.87,2.1,45-2.32,96-12.8,147.52a754.59,754.59,0,0,1-47.35,149.95c-21.51,49.12-46.79,91.82-75.13,126.9C109.67,755.38,77.89,782,45,797.53l-12.51,5.93,4.72,13a157.84,157.84,0,0,0,37.17,55c17.74,16.77,45.44,39.23,83.13,33.55,53.81-8.11,117-28,166-45.66a164.9,164.9,0,0,1-12-45.74c-7.36,6-14.42,11-20.57,15.44-4.72,3.37-9.61,6.86-11.6,8.75a36.71,36.71,0,0,1-25.27,10.28c-16.46,0-30.9-10.82-38.63-29-6.32-14.83-7.61-33.11-3.65-51.5,4.7-21.84,16.8-43.39,35-62.32,29.85-31.08,41.76-58.8,50.46-79,5.67-13.21,10.57-24.62,19.15-33.11,9.47-9.39,22.84-13.95,40.88-13.95a168.24,168.24,0,0,1,30.89,3.41c24.1-25.07,50.69-30.82,101.25-41.76,17.72-3.84,39.79-8.61,66.75-15.23,81.31-19.95,132.1-24.14,160.38-24.14,7.83,0,14.92.31,21.14.93,4.83-2.76,13.1-7.61,27-16,14.89-9,28-15,43.31-15,24.47,0,43.09,14.46,80.19,43.27l.09.07c6.07,4.71,12.94,10.05,20.45,15.81,34.51,26.45,52.37,57.1,61.6,82.5,18.62-29.08,25.92-74.6,26.79-127.48l.23-14Z"/><path class="cls-3" d="M522.29,161.08a93.54,93.54,0,0,1,29.81,2.58,88.73,88.73,0,0,1,25.4,10.79,75.64,75.64,0,0,1,19.21,17,61.36,61.36,0,0,1,11.18,21.9,54.11,54.11,0,0,1,1.91,15.07,51.94,51.94,0,0,1-2.31,14.49,54.81,54.81,0,0,1-6.25,13.46,61.4,61.4,0,0,1-10,12,12.2,12.2,0,0,0-2.32,3,14,14,0,0,0-1.41,3.61,16.31,16.31,0,0,0-.44,4,17.67,17.67,0,0,0,.59,4.23l3.88,14.59a18.27,18.27,0,0,1,.54,6.4,16.55,16.55,0,0,1-1.62,5.78,14.46,14.46,0,0,1-3.51,4.55,12.87,12.87,0,0,1-5.12,2.66l-36.06,9.26a14.73,14.73,0,0,1-6.33.2,16.23,16.23,0,0,1-5.9-2.38,18,18,0,0,1-4.77-4.57,18.81,18.81,0,0,1-2.94-6.3l-4-15.73a18.62,18.62,0,0,0-1.71-4.32,18.16,18.16,0,0,0-2.7-3.68,17.85,17.85,0,0,0-3.5-2.87,16.91,16.91,0,0,0-4.16-1.86,89.88,89.88,0,0,1-18.13-7.5A79.91,79.91,0,0,1,476,266.27a68.37,68.37,0,0,1-12-14.37A59.54,59.54,0,0,1,456.83,235a52.94,52.94,0,0,1,.36-27.35,57,57,0,0,1,13.21-23.12,70.81,70.81,0,0,1,22.77-16.16A85.87,85.87,0,0,1,522.29,161.08Z"/><path class="cls-3" d="M647.35,278l10.13,13.77a14.45,14.45,0,0,1,2.75,8.52,12.53,12.53,0,0,1-.71,4.21A9.81,9.81,0,0,1,657.4,308l-30,31.33a14.72,14.72,0,0,0-3.73,7.35A18.57,18.57,0,0,0,624,355a17.53,17.53,0,0,0,3.86,7.25,13,13,0,0,0,6.81,4.06l38.9,8.66a11.25,11.25,0,0,1,4.5,2.19,14.76,14.76,0,0,1,3.47,4,18,18,0,0,1,2.11,5.25,19.22,19.22,0,0,1,.43,6,17.64,17.64,0,0,1-.84,4.16,15.35,15.35,0,0,1-1.69,3.53,13.22,13.22,0,0,1-2.39,2.74,10.69,10.69,0,0,1-2.95,1.79,9.4,9.4,0,0,1-1.27.41,10,10,0,0,1-1.33.23,8.93,8.93,0,0,1-1.37,0,9.66,9.66,0,0,1-1.41-.16l-83-15.9a13.14,13.14,0,0,0-1.64-.21,12.65,12.65,0,0,0-1.63,0,12.38,12.38,0,0,0-1.62.22,12.75,12.75,0,0,0-1.58.43,10.82,10.82,0,0,0-1.54.63,12.69,12.69,0,0,0-1.48.83,15.13,15.13,0,0,0-1.4,1,14.79,14.79,0,0,0-1.3,1.21l-79.18,82.73a16.43,16.43,0,0,1-2.68,2.28,16.85,16.85,0,0,1-1.45.87,14.78,14.78,0,0,1-5.48,1.68,13.51,13.51,0,0,1-4-.22,12.39,12.39,0,0,1-6.87-4.06l-2.36-2.72a17.43,17.43,0,0,1-3.51-6.48,20.28,20.28,0,0,1-.73-7.42A22.18,22.18,0,0,1,476,446.16l41.68-40.89a18.8,18.8,0,0,0,5.1-8.83,19.46,19.46,0,0,0,0-9.53,17.9,17.9,0,0,0-4.46-8.11,15.84,15.84,0,0,0-8.43-4.52l-57.55-11a14.41,14.41,0,0,1-5.4-2.25,14.63,14.63,0,0,1-6.1-9.35,14.33,14.33,0,0,1,.09-5.9l1.58-7.19a14.77,14.77,0,0,1,1.51-4,14.52,14.52,0,0,1,2.49-3.26,14.68,14.68,0,0,1,7-3.88c.52-.12,1-.21,1.58-.28a14.17,14.17,0,0,1,1.6-.1,12.8,12.8,0,0,1,1.63.08,11.92,11.92,0,0,1,1.64.27l104.65,23.3a13.94,13.94,0,0,0,1.68.26,11.65,11.65,0,0,0,1.67,0,12.81,12.81,0,0,0,1.64-.15,14.77,14.77,0,0,0,1.6-.36,12.34,12.34,0,0,0,1.54-.56,12.64,12.64,0,0,0,1.47-.74,12.9,12.9,0,0,0,1.38-.94,13.5,13.5,0,0,0,1.29-1.11Z"/><path class="cls-4" d="M951.58,682.5S948,685,941.56,685c-10.92,0-29.91-7.42-52.6-47.64h0c-37.37-68.22-75.67-82.78-77.32-83.38a4.48,4.48,0,0,0-3,8.44c.38.14,38.82,14.74,75.55,84.86l0,.09c-4.91,8.4-9.48,11.31-9.48,11.31,15.45,24.06,54.87,202-224.94,257.85-50,10-92.34,14.37-128,14.37-163.77,0-187.95-92.27-182.43-157.88a46.63,46.63,0,0,0-11.66-5.67c4.72-8.24,12.11-22.3,23.3-46.14,7.1-15.13,10.17-32,9.13-50a4.52,4.52,0,0,0-1.39-3,4.39,4.39,0,0,0-3.32-1.21,4.48,4.48,0,0,0-4.19,4.74c1,16.78-1.74,31.71-8.29,45.67-15.18,32.35-23.12,46.15-26.65,51.67l0,0c-19.39,24.1-46,38.11-56.43,48a8.2,8.2,0,0,1-5.69,2.48c-15.24,0-31.9-47.56,13.24-94.57,51-53.07,55.62-98.29,69.11-111.66,4.29-4.24,12.13-5.69,20.84-5.69,18.73,0,41.45,6.69,41.45,6.69,28.35-38.77,50.88-33.27,164.23-61.09,78.83-19.35,127.16-23.33,153.59-23.33,18.46,0,26.22,1.95,26.22,1.95h0c.18,0,2.68-.58,36.71-21.18,11.74-7.11,20.12-10.91,28.56-10.91,17.48,0,35.19,16.3,83.41,53.27C963,607.89,951.58,682.5,951.58,682.5Z"/><path class="cls-1" d="M832.47,688.46s52-97-52.87-121.17S646.12,614.7,659.68,659c0,0-46-1.41-55.47,13.72,0,0-31.46-103.93-167-31.82C357.34,683.38,384.94,764.19,419,782.51c4.87,2.62,7.87,9.49,2.7,20.11a56.17,56.17,0,0,0-5.14,32.48c4.14,30.95,33.48,44.63,109.26,34.3q11-1.5,21.19-3.8l1.58-.37q2.49-.57,4.94-1.18a253,253,0,0,0,118-67.32c3.93-8.12,4.42-22.5.75-32.41-6.56-17.68-24.94-26.14-25.13-26.22l0-.09c-8.52-4.49-18.43-7.71-25.52-3.88-13.23,7.16-23.67,16.24-25.55,1.44-.88-6.92,1.29-41.93,42.92-53.36s59.75,8.21,62,18.35c1.54,6.88-2.19,20.64-11.87,21.17-5.25.28-7.27,4.6-9.11,9.76a8.7,8.7,0,0,0,1,8,61.58,61.58,0,0,1,10.31,17.73c4.89,13.19,4.86,27.5,0,42.67A156.91,156.91,0,0,0,772.72,806l1.93-.38,2.64-.55a167,167,0,0,0,31.83-10.45C872,766.86,841.41,695.31,832.47,688.46Z"/><path class="cls-1" d="M743.49,832.05a180.53,180.53,0,0,1-63.1-11.43,279.29,279.29,0,0,1-38.6,30.09,274.62,274.62,0,0,1-70.22,32.49c16.9,11.36,48.76,20.45,106.29,3.14,55.81-16.78,78.69-39,87.94-55.7A179.89,179.89,0,0,1,743.49,832.05Z"/><path class="cls-3" d="M571.16,673.31c-9.79-25.07-40.94-37.19-75.12-31.68a57.62,57.62,0,1,1-65.45,36.25c-14.48,17.49-20.13,38.28-13.07,56.38,12,30.74,56.12,42,98.54,25.18S583.16,704.05,571.16,673.31Z"/><path class="cls-3" d="M776,676.11a50.5,50.5,0,0,1-31.12-90.28c-28.51,2.53-51.22,20.78-53.15,44.68-2.23,27.49,23.88,52,58.31,54.84,20.89,1.69,40-5,52.37-16.7A50.23,50.23,0,0,1,776,676.11Z"/></svg>